<svg id="Layer_1" data-name="Layer 1" xmlns="http://www.w3.org/2000/svg" viewBox="0 0 193.88 49.48"><defs><style>.cls-1{fill:#fff;}.cls-2{fill:none;stroke:#fff;stroke-width:0.33px;}</style></defs><title>UVMLogoSolid White</title><path class="cls-1" d="M50.55,47.25c.53-.08.58-.46.61-1.22,0-.49,0-5.49,0-8.24a.13.13,0,0,0-.1-.12c-.32,0-2.18,0-2.53,0A.73.73,0,0,0,48,38a5.88,5.88,0,0,0-.75,1.48.32.32,0,0,1-.27-.07c.12-.7.25-1.72.31-2.45,0,0,0,0,.08,0a3.39,3.39,0,0,0,1.27.25l7.56,0a.07.07,0,0,0,.07-.07v-1s.05-.1.09-.1a2.51,2.51,0,0,0,.81-.19s.09,0,.09.07,0,.27,0,1.48,0,4,0,4.56c0,0,0,0,.07,0a4.06,4.06,0,0,1,2.38-1.09c1.22,0,1.92.92,1.92,2.57,0,.88,0,2.62,0,3.37a.34.34,0,0,0,.12.3,1.91,1.91,0,0,0,1,.27.45.45,0,0,1-.07.25c-.19,0-.9-.07-1.56-.05-.48,0-1.26,0-1.45.05s0-.2,0-.25a3.19,3.19,0,0,0,.73-.15c.19-.1.27-.15.29-1A22,22,0,0,0,60.53,43a1.57,1.57,0,0,0-1.67-1.31,2.08,2.08,0,0,0-1.43.54.71.71,0,0,0-.24.44c0,1.14,0,3.47,0,3.91s.15.68.48.76a4,4,0,0,0,.59.1c.05,0,0,.2,0,.24s-1.05,0-1.67,0c-.46,0-1.09.05-1.36.05a.23.23,0,0,1,0-.25,3.16,3.16,0,0,0,.58-.1c.29-.08.36-.29.37-.78,0-.34,0-2.58,0-2.84,0-4.67,0-5.17,0-5.8a.2.2,0,0,0-.15-.2c-.68-.05-3.31,0-3.74,0-.05,0-.09.1-.09.15,0,2.43,0,7.38.07,8.18.05,1.07.27,1.16.65,1.26a6,6,0,0,0,1,.14.43.43,0,0,1,0,.25c-.49,0-1.6-.05-2.18-.05-.94,0-2,.07-2.31.05a.23.23,0,0,1,0-.25,8.66,8.66,0,0,0,1.12-.15" transform="translate(-7.49 -2.82)"/><path class="cls-1" d="M68.7,46.29a.72.72,0,0,1,0,.29,3.7,3.7,0,0,1-2.55,1.24A2.48,2.48,0,0,1,64.18,47a3.91,3.91,0,0,1-.85-2.57,3.35,3.35,0,0,1,1.43-3,4,4,0,0,1,1.68-.54c1.55,0,2,1.53,2.16,2.31,0,.05.05.1.22.12a.32.32,0,0,1-.07.22,24.89,24.89,0,0,1-4.42.39c-.07,0-.1.1-.1.19a3.31,3.31,0,0,0,.63,2,2.31,2.31,0,0,0,1.92.9,2.52,2.52,0,0,0,1.87-.73s.05,0,.05,0m-4.42-2.86c0,.05,0,.1.05.1a26.58,26.58,0,0,0,3.16-.12.17.17,0,0,0,.1-.13c-.1-.82-.63-1.94-1.7-1.94-.82,0-1.51.71-1.62,2.09" transform="translate(-7.49 -2.82)"/><path class="cls-1" d="M72.17,37.14c.22,0,1.09.05,1.84.05s1.29-.05,1.65-.05a.33.33,0,0,1,0,.25,6.1,6.1,0,0,0-.71.15c-.29.1-.37.24-.41,1,0,1.39,0,4.5,0,5.41a3.61,3.61,0,0,0,.68,2.29,3.49,3.49,0,0,0,2.69,1.07c1.63,0,3-.63,3.06-3.35.05-1.29.1-3.28,0-5.13,0-1.07-.32-1.19-.73-1.27-.24-.05-.37-.05-.71-.1a.33.33,0,0,1,0-.25c.24,0,.8,0,1.79,0,.66,0,1.22,0,1.48,0a.33.33,0,0,1,0,.25,4.23,4.23,0,0,0-.63.12c-.42.12-.54.37-.56,1.38-.09,4.5-.07,5-.29,6.15-.44,2.24-2.23,2.86-3.89,2.86-2.38,0-3.71-1-3.94-3.09-.12-1-.07-5.49-.1-6.36,0-.44,0-.78-.39-.92a6.28,6.28,0,0,0-.85-.15c-.05,0,0-.22,0-.25" transform="translate(-7.49 -2.82)"/><path class="cls-1" d="M83.54,47.27c.25-.1.31-.39.32-.66.05-.63,0-1.72,0-2.86a14.61,14.61,0,0,0,0-1.53c0-.24-.15-.29-.82-.48,0,0,0-.2.05-.22a5.64,5.64,0,0,0,1.77-.63.08.08,0,0,1,0,.07c0,.36,0,.71-.07,1,0,.05,0,.1.07.07a4.26,4.26,0,0,1,2.4-1.14,1.68,1.68,0,0,1,1.48.85,3.59,3.59,0,0,1,.41,2c0,.92,0,2.36,0,3.11,0,.25.05.37.25.44a3.23,3.23,0,0,0,.73.15.27.27,0,0,1,0,.25c-.24,0-.65-.05-1.43-.05s-1.29,0-1.58.05a.33.33,0,0,1,0-.25,4.73,4.73,0,0,0,.71-.12.49.49,0,0,0,.36-.49c0-.78,0-3,0-3.55a2,2,0,0,0-.48-1.16,1.42,1.42,0,0,0-1.14-.44,2.14,2.14,0,0,0-1.55.66c-.14.14-.19.29-.19.73,0,1.34,0,2.75,0,3.5,0,.48.09.61.27.7a3.75,3.75,0,0,0,.78.15.5.5,0,0,1,0,.27c-.19,0-.61-.05-1.53-.05s-1.22.05-1.46.05c-.05,0,0-.22,0-.25a2.89,2.89,0,0,0,.63-.14" transform="translate(-7.49 -2.82)"/><path class="cls-1" d="M93.63,47.66c-.32,0-1-.05-1.5-.05-.65,0-1.24.05-1.48.05a.33.33,0,0,1,0-.25,2.77,2.77,0,0,0,.7-.15c.19-.08.27-.19.3-.7s0-1.82,0-2.79c0-.68,0-1.22,0-1.51a.47.47,0,0,0-.08-.31,1.32,1.32,0,0,0-.73-.32s0-.22,0-.25a5.37,5.37,0,0,0,1.8-.48c0,.48,0,1.82,0,2.87s0,2.11,0,2.94a.51.51,0,0,0,.36.56,3.09,3.09,0,0,0,.68.14s0,.24-.05.25m-1.29-8.58a1.08,1.08,0,0,1-.53,0,.62.62,0,0,1-.32-.58.51.51,0,0,1,.08-.32.86.86,0,0,1,.56-.24.68.68,0,0,1,.39.14.49.49,0,0,1,.14.34.68.68,0,0,1-.32.63" transform="translate(-7.49 -2.82)"/><path class="cls-1" d="M93.68,41.08c.17,0,1,.05,1.41.05.63,0,1.14,0,1.43-.05.05,0,0,.2,0,.25a3.38,3.38,0,0,0-.66.15.19.19,0,0,0-.08.24c.19.75,1.56,4.27,1.63,4.42s.07,0,.07,0c.37-.9,1.17-3.13,1.38-3.81s.1-.76-.07-.83a3.25,3.25,0,0,0-.78-.17c0-.05,0-.22.05-.25.2,0,.81.05,1.41.05.44,0,1.05,0,1.21-.05s0,.22,0,.25a3.43,3.43,0,0,0-.58.12.94.94,0,0,0-.56.58c-.41.88-1.16,2.82-1.7,4.25-.27.7-.39,1.09-.49,1.43a1.66,1.66,0,0,0-.44,0c-.12-.42-.22-.75-.41-1.29-.41-1.19-1.05-2.84-1.36-3.62-.41-1.05-.42-1.22-.87-1.38a3.53,3.53,0,0,0-.61-.12s0-.22,0-.25" transform="translate(-7.49 -2.82)"/><path class="cls-1" d="M106.27,46.29a.73.73,0,0,1,0,.29,3.71,3.71,0,0,1-2.55,1.24,2.48,2.48,0,0,1-1.94-.82,3.9,3.9,0,0,1-.85-2.57,3.35,3.35,0,0,1,1.43-3A4,4,0,0,1,104,40.9c1.55,0,2,1.53,2.16,2.31,0,.05.05.1.22.12a.31.31,0,0,1-.07.22,24.9,24.9,0,0,1-4.42.39c-.07,0-.1.1-.1.19a3.31,3.31,0,0,0,.63,2,2.31,2.31,0,0,0,1.92.9,2.52,2.52,0,0,0,1.87-.73s.05,0,.05,0m-4.42-2.86c0,.05,0,.1.05.1a26.6,26.6,0,0,0,3.16-.12.18.18,0,0,0,.1-.13c-.1-.82-.63-1.94-1.7-1.94-.82,0-1.51.71-1.61,2.09" transform="translate(-7.49 -2.82)"/><path class="cls-1" d="M111.47,41.22a.54.54,0,0,1,0,.24,2.38,2.38,0,0,1-.46.76l-.12.05a1.38,1.38,0,0,0-.9-.39c-.39,0-.7.39-1,.85a2.07,2.07,0,0,0-.17.8c0,1,0,2.8.05,3.18s.1.48.32.54a3.59,3.59,0,0,0,.92.15.27.27,0,0,1,0,.25c-.17,0-1-.05-1.56-.05s-1.31,0-1.58.05a.33.33,0,0,1,0-.25,3.54,3.54,0,0,0,.63-.14c.15-.05.25-.14.29-.41S108,45,108,43.74c0-.68,0-1.21,0-1.43s-.08-.46-.87-.63c0,0,0-.19,0-.2a5.35,5.35,0,0,0,1.7-.58s.07,0,.07.05c0,.32,0,1.07,0,1.41,0,0,.05,0,.07,0a5.44,5.44,0,0,1,1-1.14,1.37,1.37,0,0,1,.83-.34.77.77,0,0,1,.66.32" transform="translate(-7.49 -2.82)"/><path class="cls-1" d="M115.79,42.63c0,.05-.24.07-.27,0-.09-.8-.24-1.12-.56-1.28a1.72,1.72,0,0,0-.77-.15,1.06,1.06,0,0,0-1.09,1.1c0,.6.21,1,1.39,1.6,1.38.7,1.68,1.21,1.68,2a2.11,2.11,0,0,1-2.35,1.94,4.44,4.44,0,0,1-1.58-.31,7.39,7.39,0,0,1-.25-1.7c0-.05.22-.1.27-.07a2.06,2.06,0,0,0,1,1.58,1.61,1.61,0,0,0,.73.15,1.12,1.12,0,0,0,1.21-1.09c0-.68-.31-1-1.26-1.55-1.38-.73-1.73-1.31-1.73-2.12s.78-1.82,2.23-1.82a6.65,6.65,0,0,1,.92.08A4.85,4.85,0,0,0,116,41a7.94,7.94,0,0,0-.19,1.58" transform="translate(-7.49 -2.82)"/><path class="cls-1" d="M120,47.66c-.32,0-1-.05-1.5-.05-.65,0-1.24.05-1.48.05a.33.33,0,0,1,0-.25,2.78,2.78,0,0,0,.7-.15c.19-.08.27-.19.3-.7s0-1.82,0-2.79c0-.68,0-1.22,0-1.51a.47.47,0,0,0-.09-.31,1.33,1.33,0,0,0-.73-.32s0-.22,0-.25a5.37,5.37,0,0,0,1.8-.48c0,.48,0,1.82,0,2.87s0,2.11,0,2.94a.51.51,0,0,0,.36.56,3.09,3.09,0,0,0,.68.14s0,.24-.05.25m-1.29-8.58a1.08,1.08,0,0,1-.53,0,.62.62,0,0,1-.32-.58.51.51,0,0,1,.09-.32.86.86,0,0,1,.56-.24.68.68,0,0,1,.39.14.49.49,0,0,1,.13.34.68.68,0,0,1-.32.63" transform="translate(-7.49 -2.82)"/><path class="cls-1" d="M122.39,41.75c-.05,0-.08.07-.08.1,0,1,0,3,0,3.72a3.16,3.16,0,0,0,.12,1,1,1,0,0,0,1,.58,1.48,1.48,0,0,0,1-.29.85.85,0,0,1,0,.29,1.88,1.88,0,0,1-1.46.7,1.29,1.29,0,0,1-1.26-.71,4.41,4.41,0,0,1-.2-1.9c0-.93,0-2.63,0-3.32a.09.09,0,0,0-.07-.1c-.12,0-.65-.05-.88-.07a2,2,0,0,1,.14-.39,6.09,6.09,0,0,0,.76-.15.12.12,0,0,0,.05-.08V39.76a3.85,3.85,0,0,0,.83-.83.31.31,0,0,1,.19,0,13.71,13.71,0,0,0-.1,2.09.12.12,0,0,0,.07.08,14.53,14.53,0,0,0,1.91-.07,4.57,4.57,0,0,0-.14.7l-1.75,0" transform="translate(-7.49 -2.82)"/><path class="cls-1" d="M124.67,41.08c.29,0,.56.05,1.4.05.61,0,1.27-.05,1.39-.05a.33.33,0,0,1,0,.25,4.7,4.7,0,0,0-.58.14.19.19,0,0,0-.12.24c.15.61,1.65,4.5,1.7,4.61h0A23,23,0,0,0,130.06,42c0-.17,0-.41-.34-.51a5.36,5.36,0,0,0-.63-.12.27.27,0,0,1,0-.25c.15,0,.83.05,1.34.05s.81,0,1.26-.05a.24.24,0,0,1,0,.25,4.07,4.07,0,0,0-.48.1.82.82,0,0,0-.61.61,61,61,0,0,1-4.13,9.23c-.19.32-.46.73-.58,1l-.08,0a1.37,1.37,0,0,1-.6-.39s0-.12,0-.15a25.11,25.11,0,0,0,2.67-4.18,1.88,1.88,0,0,0-.1-.25c-.32-.92-1.14-3.11-1.67-4.42-.39-1-.53-1.28-.88-1.39a3.31,3.31,0,0,0-.61-.14.33.33,0,0,1,0-.25" transform="translate(-7.49 -2.82)"/><path class="cls-1" d="M141.19,44.18a3.54,3.54,0,0,1-1.55,3,3.45,3.45,0,0,1-1.8.61c-2.38,0-3.15-1.9-3.15-3.52a3.13,3.13,0,0,1,1.43-2.74,3.87,3.87,0,0,1,2.09-.66,3,3,0,0,1,3,3.28m-4.52-2.53a2.49,2.49,0,0,0-.94,2.26c0,1.9,1,3.4,2.57,3.4a1.71,1.71,0,0,0,1.17-.42,2.77,2.77,0,0,0,.68-2.16c0-1.9-.92-3.35-2.55-3.35a1.81,1.81,0,0,0-.93.27" transform="translate(-7.49 -2.82)"/><path class="cls-1" d="M142.31,41.51a2.22,2.22,0,0,1,.56-.41h.7a.12.12,0,0,0,.07-.1c.43-2.46,1.09-3.76,2.36-4.69a2.12,2.12,0,0,1,1.14-.46c.2,0,.44.05.44.19a3.1,3.1,0,0,1-.61.82.2.2,0,0,1-.14,0,1.29,1.29,0,0,0-.61-.15,1,1,0,0,0-.85.61,11.12,11.12,0,0,0-.9,3.65c0,.05,0,.1.05.1a6.1,6.1,0,0,0,1.58-.15.31.31,0,0,1-.05.2,2,2,0,0,1-1,.44c-.15,0-.46.05-.63.07s-.09.08-.09.12c-.27,1.75-.56,4-.92,5.92-.63,3.47-2.14,4.62-3.37,4.62-.53,0-.87-.29-.9-.61a3,3,0,0,1,.14-.9.21.21,0,0,1,.15-.07,1.48,1.48,0,0,0,1.38.88c.88,0,1.26-1,1.62-3.08.39-2.35.88-5.49,1-6.77,0,0,0-.1-.05-.1-.37,0-1,0-1.17,0a.32.32,0,0,1,0-.12" transform="translate(-7.49 -2.82)"/><path class="cls-1" d="M150.4,37.14c.32,0,1.12.05,1.82.05,1,0,1.43,0,1.79-.05a.23.23,0,0,1,0,.25l-.75.15A.31.31,0,0,0,153,38c.58,1.61,2.72,7.26,3,8,0,0,0,0,.07,0,.22-.46,2.45-6,3-7.5.19-.54.17-.85-.34-1-.27-.05-.44-.08-.8-.14a.46.46,0,0,1,0-.25c.41,0,1,.05,1.7.05s1.29-.05,1.6-.05a.62.62,0,0,1,0,.25,4.7,4.7,0,0,0-.68.12c-.49.12-.65.41-1.16,1.62s-1.92,4.62-2.75,6.7c-.29.75-.49,1.36-.64,1.9a2,2,0,0,0-.65,0c-.19-.66-.42-1.45-.76-2.33-.85-2.29-2.09-5.59-2.64-6.9-.31-.75-.49-.93-.9-1l-.71-.1c0-.05,0-.24,0-.25" transform="translate(-7.49 -2.82)"/><path class="cls-1" d="M165,46.29a.73.73,0,0,1,0,.29,3.71,3.71,0,0,1-2.55,1.24A2.48,2.48,0,0,1,160.5,47a3.9,3.9,0,0,1-.85-2.57,3.35,3.35,0,0,1,1.43-3,4,4,0,0,1,1.68-.54c1.55,0,2,1.53,2.16,2.31,0,.05.05.1.22.12a.31.31,0,0,1-.07.22,24.9,24.9,0,0,1-4.42.39c-.07,0-.1.1-.1.19a3.31,3.31,0,0,0,.63,2,2.32,2.32,0,0,0,1.92.9,2.52,2.52,0,0,0,1.87-.73s.05,0,.05,0m-4.42-2.86c0,.05,0,.1.05.1a26.59,26.59,0,0,0,3.16-.12.18.18,0,0,0,.1-.13c-.1-.82-.63-1.94-1.7-1.94-.82,0-1.51.71-1.62,2.09" transform="translate(-7.49 -2.82)"/><path class="cls-1" d="M170.22,41.22a.54.54,0,0,1,0,.24,2.38,2.38,0,0,1-.46.76l-.12.05a1.38,1.38,0,0,0-.9-.39c-.39,0-.7.39-1,.85a2.07,2.07,0,0,0-.17.8c0,1,0,2.8.05,3.18s.1.48.32.54a3.59,3.59,0,0,0,.92.15.27.27,0,0,1,0,.25c-.17,0-1-.05-1.56-.05s-1.31,0-1.58.05a.33.33,0,0,1,0-.25,3.54,3.54,0,0,0,.63-.14c.15-.05.25-.14.29-.41s.07-1.82.07-3.13c0-.68,0-1.21,0-1.43s-.09-.46-.87-.63c0,0,0-.19,0-.2a5.35,5.35,0,0,0,1.7-.58s.07,0,.07.05c0,.32,0,1.07,0,1.41,0,0,.05,0,.07,0a5.44,5.44,0,0,1,1-1.14,1.37,1.37,0,0,1,.83-.34.77.77,0,0,1,.66.32" transform="translate(-7.49 -2.82)"/><path class="cls-1" d="M171.23,47.27c.29-.08.32-.41.34-.77,0-1,.05-2.58.05-3.79a1.16,1.16,0,0,0-.15-.61,1.47,1.47,0,0,0-.75-.32.36.36,0,0,1,.07-.24,4.05,4.05,0,0,0,1.73-.64.08.08,0,0,1,.05.05c0,.12,0,.8,0,1.05,0,0,.05.07.07.05a4.49,4.49,0,0,1,2.28-1.16,1.87,1.87,0,0,1,1.7,1.16c0,.05.1,0,.12,0a4.64,4.64,0,0,1,2.41-1.17c1.28,0,1.89,1,1.92,2.58,0,.9,0,2.62,0,3.3,0,.19,0,.32.14.41a1.79,1.79,0,0,0,.9.22s0,.22-.05.25c-.36,0-1-.05-1.51-.05-.8,0-1.19,0-1.45.05a.34.34,0,0,1,0-.25,3.3,3.3,0,0,0,.78-.19c.22-.09.22-.44.22-1.22a24.52,24.52,0,0,0-.07-3,1.51,1.51,0,0,0-1.63-1.38,2.31,2.31,0,0,0-1.6.71s-.05.12-.05.15a7,7,0,0,1,.07,1.16c0,.9,0,2.52,0,3.2a.42.42,0,0,0,.26.41,3.71,3.71,0,0,0,.73.14.27.27,0,0,1,0,.25c-.42,0-.85-.05-1.5-.05s-1.15.05-1.41.05a.33.33,0,0,1,0-.25,4.11,4.11,0,0,0,.64-.14c.2-.07.25-.2.29-.7a32.18,32.18,0,0,0,0-3.67,1.5,1.5,0,0,0-1.53-1.26,2.38,2.38,0,0,0-1.33.49.78.78,0,0,0-.37.56c0,1.07,0,3.23,0,4,0,.24,0,.46.3.54a6,6,0,0,0,.71.14s0,.24,0,.25c-.32,0-.87-.05-1.44-.05-.82,0-1.17.05-1.55.05-.05,0,0-.24,0-.25a4.31,4.31,0,0,0,.66-.14" transform="translate(-7.49 -2.82)"/><path class="cls-1" d="M189.23,44.18a3.54,3.54,0,0,1-1.55,3,3.45,3.45,0,0,1-1.8.61c-2.38,0-3.15-1.9-3.15-3.52a3.13,3.13,0,0,1,1.43-2.74,3.87,3.87,0,0,1,2.09-.66,3,3,0,0,1,3,3.28m-4.52-2.53a2.49,2.49,0,0,0-.94,2.26c0,1.9,1,3.4,2.57,3.4a1.71,1.71,0,0,0,1.17-.42,2.77,2.77,0,0,0,.68-2.16c0-1.9-.92-3.35-2.55-3.35a1.81,1.81,0,0,0-.93.27" transform="translate(-7.49 -2.82)"/><path class="cls-1" d="M190.61,47.27c.26-.1.31-.39.32-.66.05-.63,0-1.72,0-2.86a14.58,14.58,0,0,0,0-1.53c0-.24-.15-.29-.82-.48,0,0,0-.2.05-.22a5.64,5.64,0,0,0,1.77-.63.08.08,0,0,1,0,.07c0,.36,0,.71-.07,1,0,.05,0,.1.07.07a4.26,4.26,0,0,1,2.4-1.14,1.68,1.68,0,0,1,1.48.85,3.58,3.58,0,0,1,.41,2c0,.92,0,2.36,0,3.11,0,.25.05.37.25.44a3.23,3.23,0,0,0,.73.15.27.27,0,0,1,0,.25c-.24,0-.64-.05-1.43-.05s-1.29,0-1.58.05a.33.33,0,0,1,0-.25,4.71,4.71,0,0,0,.71-.12.49.49,0,0,0,.36-.49c0-.78,0-3,0-3.55a2,2,0,0,0-.48-1.16,1.42,1.42,0,0,0-1.14-.44,2.14,2.14,0,0,0-1.55.66c-.14.14-.19.29-.19.73,0,1.34,0,2.75,0,3.5,0,.48.08.61.27.7a3.76,3.76,0,0,0,.78.15.51.51,0,0,1,0,.27c-.19,0-.61-.05-1.53-.05s-1.22.05-1.46.05c-.05,0,0-.22,0-.25a2.88,2.88,0,0,0,.63-.14" transform="translate(-7.49 -2.82)"/><path class="cls-1" d="M199.43,41.75c-.05,0-.09.07-.09.1,0,1,0,3,0,3.72a3.18,3.18,0,0,0,.12,1,1,1,0,0,0,1,.58,1.48,1.48,0,0,0,1-.29.86.86,0,0,1,0,.29,1.88,1.88,0,0,1-1.46.7,1.29,1.29,0,0,1-1.26-.71,4.41,4.41,0,0,1-.21-1.9c0-.93,0-2.63,0-3.32a.09.09,0,0,0-.07-.1c-.12,0-.65-.05-.88-.07a2,2,0,0,1,.14-.39,6.09,6.09,0,0,0,.76-.15.12.12,0,0,0,.05-.08V39.76a3.85,3.85,0,0,0,.83-.83.31.31,0,0,1,.19,0,13.66,13.66,0,0,0-.1,2.09.12.12,0,0,0,.07.08,14.53,14.53,0,0,0,1.91-.07,4.57,4.57,0,0,0-.14.7l-1.75,0" transform="translate(-7.49 -2.82)"/><polygon class="cls-1" points="21.87 17.44 20.84 17.44 19.08 7.31 20.11 17.44 18.88 17.44 18.88 5.82 21.87 17.44"/><polygon class="cls-1" points="23.11 19.66 23.11 19.12 22.36 18.31 15.4 18.31 14.66 19.12 14.66 19.66 23.11 19.66"/><path class="cls-1" d="M26,28.49H24.62V24.9a.72.72,0,0,1,1.43,0Z" transform="translate(-7.49 -2.82)"/><path class="cls-1" d="M24,28.49H22.54V24.9a.72.72,0,0,1,1.43,0Z" transform="translate(-7.49 -2.82)"/><path class="cls-1" d="M30.21,28.49H28.78V24.9a.72.72,0,0,1,1.43,0Z" transform="translate(-7.49 -2.82)"/><path class="cls-1" d="M28.13,28.49H26.7V24.9a.72.72,0,0,1,1.43,0Z" transform="translate(-7.49 -2.82)"/><polygon class="cls-1" points="23.56 27.15 23.04 26.17 14.72 26.17 14.2 27.15 23.56 27.15"/><path class="cls-1" d="M24.61,39.9H23V37.68a.79.79,0,0,1,1.56,0Z" transform="translate(-7.49 -2.82)"/><path class="cls-1" d="M29.75,39.9H28.19V37.68a.79.79,0,0,1,1.56,0Z" transform="translate(-7.49 -2.82)"/><path class="cls-1" d="M27.35,39.9H25.4V36s0-.79,1-.79,1,.79,1,.79Z" transform="translate(-7.49 -2.82)"/><polygon class="cls-1" points="12.06 37.08 13.23 37.08 18.88 29.34 24.54 37.08 25.71 37.08 18.88 27.89 12.06 37.08"/><polygon class="cls-1" points="8.48 38.66 29.28 38.66 29.8 37.9 7.96 37.9 8.48 38.66"/><path class="cls-1" d="M26,45h-2.6V43a6.56,6.56,0,0,1,2.6-.63Z" transform="translate(-7.49 -2.82)"/><path class="cls-1" d="M26.76,45h2.6V43a6.56,6.56,0,0,0-2.6-.63Z" transform="translate(-7.49 -2.82)"/><rect class="cls-1" x="15.89" y="42.99" width="2.6" height="1.98"/><rect class="cls-1" x="19.27" y="42.99" width="2.6" height="1.98"/><path class="cls-1" d="M22.6,45H20.66a8.64,8.64,0,0,1,1.94-1.66" transform="translate(-7.49 -2.82)"/><path class="cls-1" d="M22.6,47.8v-2H20a8.88,8.88,0,0,0-1.14,2H22.6" transform="translate(-7.49 -2.82)"/><path class="cls-1" d="M30.14,45h1.94a8.63,8.63,0,0,0-1.94-1.66" transform="translate(-7.49 -2.82)"/><path class="cls-1" d="M30.14,47.8v-2h2.57a8.88,8.88,0,0,1,1.14,2H30.14" transform="translate(-7.49 -2.82)"/><path class="cls-1" d="M36.77,47.8V45.52l.78-.48V43.26l.52-.44V40.93l.78-.5V39.9H34.11L32,37.09l-1-6.07.78-1-.78-1.48v-4.7l1-.52v-.84L30.41,20.5l-.2-.24L27.09,8.91l.46-.35L26.59,6.9a.62.62,0,0,0,.4-.59.6.6,0,0,0-.62-.64V3H45.09V47.8Z" transform="translate(-7.49 -2.82)"/><path class="cls-1" d="M16,47.8V45.52L15.19,45V43.26l-.52-.44V40.93l-.78-.5V39.9h4.74l2.08-2.81,1-6.07-.78-1,.78-1.48v-4.7l-1-.52v-.84l1.68-1.92.2-.24L25.66,8.91l-.45-.35.95-1.66a.62.62,0,0,1-.4-.59.6.6,0,0,1,.62-.64V3H7.65V47.8Z" transform="translate(-7.49 -2.82)"/><rect class="cls-2" x="0.16" y="0.16" width="37.44" height="44.82"/></svg>