<?xml version="1.0" encoding="utf-8"?>
<!-- Generator: Adobe Illustrator 22.1.0, SVG Export Plug-In . SVG Version: 6.00 Build 0)  -->
<svg version="1.1" id="Layer_1" xmlns="http://www.w3.org/2000/svg" xmlns:xlink="http://www.w3.org/1999/xlink" x="0px" y="0px"
	 viewBox="0 0 849 187" style="enable-background:new 0 0 849 187;" xml:space="preserve">
<style type="text/css">
	.st0{fill:#FFFFFF;}
	.st1{fill:#01533F;}
	.st2{fill:none;stroke:#01533F;stroke-width:2.5;}
	.st3{fill:none;}
</style>
<title>849-187uvmlogo-66AC47-web-4</title>
<rect x="10.6" y="9.4" class="st0" width="141.2" height="166.5"/>
<path class="st1" d="M182.1,130.8c1.9-0.3,2.2-1.6,2.4-4.8c0.1-2.9,0.1-21.3,0.1-31.9c0-0.2-0.2-0.4-0.4-0.5c-1.2-0.1-8-0.1-9.4,0.1
	c-1.1,0-2.1,0.6-2.6,1.5c-1.2,1.7-2.1,3.6-2.8,5.7c-0.2,0.1-1.1-0.1-1.1-0.3c0.5-3.2,0.9-6.5,1.1-9.8c0.2,0,0.4,0,0.6,0
	c1.6,0.6,3.3,0.9,4.9,0.9l29.6-0.1c0.1,0,0.3-0.1,0.3-0.3v-3.5c0-0.1,0.2-0.5,0.3-0.5c1.4-0.1,2.8-0.4,4.1-0.9
	c0.2,0,0.3,0.2,0.3,0.3c0,0.3-0.1,1.3-0.1,6.6v16.5c0,0.1,0.1,0.1,0.3,0.1c3.5-2.7,6.6-4.1,9.2-4.1c4.9,0,7.7,3.6,7.7,10.2
	c0,3.4,0.1,10.1,0.1,13c-0.1,0.4,0.1,0.9,0.4,1.2c0.9,0.7,1.8,0.9,3.7,1.1c0,0.4-0.1,0.7-0.3,1.1c-0.9,0-3.5-0.3-6.5-0.2
	c-2.2,0.1-5,0.1-5.9,0.2c-0.2-0.1-0.1-0.9,0-1.1c0.9-0.1,1.8-0.3,2.6-0.5c0.8-0.4,1.1-0.7,1.1-3.6c0.1-3.5,0.3-10.3-0.3-13.4
	c-0.6-2.9-3.2-5-6.1-4.8c-1.8,0-3.6,0.6-5,1.8c-0.5,0.4-0.8,0.9-0.9,1.5c0,4.7,0.1,13.8,0.2,15.6c0.1,2.1,0.5,2.7,1.7,3
	c0.7,0.2,1.5,0.3,2.2,0.4c0.2,0.2,0.1,0.9,0,1c-0.8,0-3.9-0.1-6.7-0.1c-2.3,0-4.7,0.2-5.8,0.2c-0.2-0.3-0.2-0.7,0-1.1
	c0.8-0.1,1.5-0.2,2.3-0.4c1.1-0.3,1.3-1.1,1.4-3.1c0.1-1.6,0.1-9.7,0.1-11.4c0-17.1,0-19.7-0.1-22c0-0.4-0.2-0.7-0.6-0.8
	c-2.5-0.1-12.6-0.1-14,0c-0.2,0.1-0.3,0.4-0.3,0.6c0,9.4,0.1,28.5,0.3,32.1c0.1,3.7,0.9,4.1,2.3,4.5c1.2,0.3,2.4,0.5,3.7,0.5
	c0.1,0.4,0,0.7-0.1,1.1c-2.3,0-6.1-0.2-8.8-0.2c-3.7,0-7.8,0.3-9.5,0.2c-0.2-0.3-0.2-0.7,0-1.1C179.2,131.2,180.6,131,182.1,130.8z"
	/>
<path class="st1" d="M256.5,126.7c0,0.4,0,0.8-0.1,1.1c-3.2,3.5-7.1,5.2-10.4,5.2c-2.9,0.1-5.8-1-7.8-3.2c-2.5-2.7-3.5-6.6-3.5-10.2
	c0-5.4,2.2-9.4,5.8-11.6c2.1-1.2,4.4-2,6.8-2.1c6.2,0,8.3,5.8,8.8,9c0.1,0.2,0.2,0.5,0.8,0.5c0.1,0.2-0.1,0.8-0.3,0.9
	c-2.6,0.9-11.9,1.4-17,1.5c-0.3,0-0.4,0.4-0.4,0.7c0.1,2.6,0.9,5.2,2.5,7.3c1.8,2.2,4.5,3.5,7.4,3.4c2.7,0.1,5.4-0.9,7.3-2.8
	C256.3,126.5,256.5,126.6,256.5,126.7z M239.3,115.8c0,0.2,0.1,0.4,0.2,0.4c3.8,0.1,7.5-0.1,11.3-0.5c0.2-0.1,0.4-0.3,0.4-0.5
	c-0.4-3.4-2.3-7.6-6.1-7.6C242,107.6,239.5,110.5,239.3,115.8L239.3,115.8z"/>
<path class="st1" d="M272,91.4c1,0,4.3,0.2,7.7,0.2s5.8-0.2,7.2-0.2c0.1,0.3,0.1,0.7,0,1c-0.9,0.1-1.9,0.3-2.8,0.6
	c-1.2,0.3-1.6,1-1.7,3.7c-0.2,5.2-0.1,16.9,0,20.4c0.3,4.6,0.9,6.8,2.2,8.7c2.1,3.2,6.1,4.9,10.6,4.9c6,0,11.1-2.3,11.6-12.4
	c0.3-5,0.4-13.6,0.1-20.4c-0.1-4-1.2-4.5-2.9-4.9c-0.9-0.2-1.5-0.2-2.8-0.4c-0.1-0.3-0.1-0.7,0.1-1c1.1,0,3.3,0.1,7,0.1
	c2.8,0,4.9-0.1,6.1-0.1c0.1,0.3,0.1,0.7,0,1c-0.8,0.1-1.7,0.2-2.5,0.5c-1.7,0.5-2.1,1.5-2.3,5.2c-0.3,14.3-0.3,18.3-1,22.6
	c-1.4,9.6-8.2,12.6-15.6,12.6c-9.8,0-14.8-4.3-15.7-12c-0.5-4.1-0.3-19.6-0.5-24.9c0-1.8-0.2-3.1-1.7-3.5c-1.1-0.3-2.1-0.5-3.2-0.6
	C271.8,92.3,271.8,91.6,272,91.4z"/>
<path class="st1" d="M317.8,130.9c0.9-0.3,1.2-1.4,1.3-2.7c0.2-2.3,0.1-6.9,0.1-10.8c0-3.3-0.1-5.7-0.1-6.2c-0.1-0.8-0.5-1.3-3.1-2
	c-0.1-0.1,0-0.9,0.2-0.9c2.7-0.4,5.4-1.2,7.9-2.5c0.1,0,0.2,0.1,0.2,0.3c-0.1,1.3-0.2,2.8-0.3,3.9c0,0.2,0.1,0.3,0.3,0.3
	c4.1-3.3,7.1-4.4,9.2-4.4c2.5,0,4.7,1.3,6,3.4c1.2,1.9,1.6,4.4,1.6,7.6c0,3.5,0,9.6,0.1,12.2c0,0.8,0.2,1.3,0.9,1.5
	c0.9,0.4,1.9,0.7,2.9,0.7c0.1,0.2,0,0.9-0.2,1.1c-0.9,0-2.5-0.2-5.8-0.2s-5.1,0.1-6.5,0.2c-0.1-0.3-0.1-0.7,0-1.1
	c0.9-0.1,1.7-0.2,2.5-0.4c0.9-0.3,1.5-1.1,1.4-2.1c0.2-4.7,0.1-9.3-0.1-14c-0.2-1.6-0.9-3.1-1.9-4.3c-1.1-1-2.6-1.6-4.1-1.5
	c-2,0-3.9,0.8-5.4,2.2c-0.5,0.5-0.7,1-0.7,2.4c0,5,0,11.4,0.1,14.4c0.1,1.9,0.4,2.4,1.2,2.7c0.9,0.3,1.9,0.5,2.8,0.6
	c0,0.4,0,0.7-0.1,1.1c-1.1,0-3-0.2-6.4-0.2c-3.9,0-5,0.2-6.1,0.2c-0.1-0.3-0.1-0.7,0-1.1C316.3,131.3,317.1,131.2,317.8,130.9z"/>
<path class="st1" d="M359.9,132.4c-1.4,0-4-0.2-6.1-0.2c-2.7,0-5.1,0.2-6.2,0.2c-0.1-0.3-0.1-0.7,0-1.1c0.9,0,1.8-0.2,2.6-0.5
	c0.8-0.3,1.1-0.9,1.2-2.7c0.1-1.7,0.1-7,0.1-10.7c0-2.6,0-4.9-0.1-6.1c0-0.5-0.1-1-0.4-1.3c-0.7-0.7-1.7-1.1-2.7-1.3
	c-0.1-0.3-0.1-0.7,0-1c2.8-0.2,5.5-0.9,8-2c-0.1,1.8-0.1,7.2-0.1,11.2c0,3.6,0,8.3,0.1,11.5c0,1.4,0.5,2,1.4,2.3
	c0.8,0.3,1.6,0.4,2.5,0.5C360.1,131.6,360.1,132.4,359.9,132.4z M354.9,99.1c-0.8,0.3-1.7,0.4-2.5,0.2c-1.3-0.9-1.8-2.6-1.1-4
	c0.7-0.6,1.7-1,2.7-1c0.6,0,1.3,0.2,1.8,0.6c0.4,0.4,0.5,1,0.5,1.5C356.4,97.5,355.8,98.5,354.9,99.1L354.9,99.1z"/>
<path class="st1" d="M361.1,106.6c1.2,0,4,0.2,6,0.2c2.7,0,4.7-0.1,5.9-0.2c0.2,0.1,0.1,0.9,0.1,1c-0.9,0.1-1.7,0.3-2.5,0.6
	c-0.3,0.2-0.4,0.6-0.3,0.9c0.8,2.9,5.8,15.5,6.2,16.6c0.1,0.1,0.3,0,0.3,0c1.4-3.4,4.4-11.6,5.2-14.3c0.7-2.5,0.3-2.8-0.4-3.1
	c-1-0.4-2-0.6-3-0.7c-0.1-0.2,0-0.9,0.2-1c0.7,0,3.4,0.2,5.5,0.2c1.8,0,4.1-0.1,4.9-0.2c0.2,0.1,0.1,0.9,0,1
	c-0.7,0.1-1.5,0.3-2.2,0.5c-1.1,0.4-2,1.3-2.3,2.5c-1.7,3.5-4.5,10.8-6.6,16.3c-1.1,2.7-1.6,4.4-2,5.7c-0.7,0-1.4,0-2.1,0.1
	c-0.5-1.7-1-3.1-1.7-5.1c-1.5-4.5-4-10.6-5.2-13.8c-1.7-4.5-1.9-5.1-3.6-5.7c-0.7-0.2-1.5-0.4-2.2-0.5
	C360.9,107.5,361,106.7,361.1,106.6z"/>
<path class="st1" d="M412.5,126.7c0,0.4,0,0.8-0.1,1.1c-3.2,3.5-7.1,5.2-10.4,5.2c-2.9,0.1-5.8-1-7.8-3.2c-2.5-2.7-3.5-6.6-3.5-10.2
	c0-5.4,2.2-9.4,5.8-11.6c2.1-1.2,4.4-2,6.8-2.1c6.2,0,8.3,5.8,8.8,9c0.1,0.2,0.2,0.5,0.8,0.5c0.1,0.2-0.1,0.8-0.3,0.9
	c-2.6,0.9-11.9,1.4-17,1.5c-0.3,0-0.4,0.4-0.4,0.7c0.1,2.6,0.9,5.2,2.5,7.3c1.8,2.2,4.5,3.5,7.4,3.4c2.7,0.1,5.4-0.9,7.3-2.8
	C412.3,126.5,412.5,126.6,412.5,126.7z M395.3,115.8c0,0.2,0.1,0.4,0.2,0.4c3.8,0.1,7.5-0.1,11.3-0.5c0.2-0.1,0.4-0.3,0.4-0.5
	c-0.4-3.4-2.3-7.6-6.1-7.6C398,107.6,395.6,110.5,395.3,115.8z"/>
<path class="st1" d="M434.9,107.3c0.1,0.3,0.1,0.7,0,1c-0.5,1.3-1.1,2.5-2,3.6c-0.2,0.1-0.3,0.1-0.5,0.2c-1-1.1-2.4-1.7-3.9-1.8
	c-1.4,0-2.5,1.2-3.4,2.7c-0.4,0.8-0.6,1.7-0.6,2.7c0,3.8,0.1,11.6,0.2,12.9s0.4,1.9,1.3,2.3c1.1,0.3,2.3,0.5,3.5,0.5
	c0.1,0.4,0.1,0.7-0.1,1.1c-0.9,0-4.2-0.2-6.8-0.2c-1.8,0-5.3,0.1-6.4,0.2c-0.1-0.3-0.1-0.7,0-1.1c0.8-0.1,1.7-0.2,2.5-0.5
	c0.6-0.3,1-0.7,1.1-1.9s0.3-6.8,0.3-11.8c0-2.6,0-4.7-0.1-5.6c-0.1-0.7-0.3-1.8-3.3-2.5c0-0.2,0.1-0.8,0.2-0.9
	c2.6-0.4,5.2-1.2,7.5-2.4c0.1,0,0.3,0.1,0.3,0.2c-0.1,1.2-0.1,4.3-0.1,5.5c0,0.1,0.2,0.1,0.3,0.1c1.1-1.6,2.5-3,3.9-4.3
	c0.9-0.8,2.1-1.3,3.4-1.4C433.2,105.8,434.2,106.4,434.9,107.3z"/>
<path class="st1" d="M453.5,112.9c-0.1,0.2-0.9,0.2-1.1,0.1c-0.3-3-0.9-4.5-2.4-5.2c-0.9-0.5-1.9-0.7-2.9-0.7
	c-2.2-0.1-4,1.5-4.1,3.7c0,0.1,0,0.2,0,0.3c0,2.3,0.7,3.7,5.6,6.2c5.4,2.7,6.6,4.7,6.6,7.8c0,4.5-4.1,7.8-9.7,7.8
	c-2.3,0-4.5-0.4-6.6-1.3c-0.5-2.3-0.7-4.6-0.8-6.9c0.1-0.2,0.8-0.4,1.1-0.3c0.8,3.8,2.3,5.5,4.1,6.4c0.9,0.5,2,0.7,3,0.7
	c2.6,0,4.6-1.6,4.6-4.1s-1.2-3.8-4.8-5.8c-5.6-2.9-7.1-5.2-7.1-8.5c0-4,3.1-7.4,9.1-7.4c1.3,0,2.6,0.1,3.8,0.3
	c0.8,0.1,1.6,0.2,2.4,0.3C453.8,108.6,453.5,110.7,453.5,112.9z"/>
<path class="st1" d="M471.6,132.4c-1.4,0-4-0.2-6.1-0.2c-2.7,0-5.1,0.2-6.2,0.2c-0.1-0.3-0.1-0.7,0-1.1c0.9,0,1.8-0.2,2.6-0.5
	c0.8-0.3,1.1-0.9,1.2-2.7c0.1-1.7,0.1-7,0.1-10.7c0-2.6,0-4.9-0.1-6.1c0-0.5-0.1-1-0.4-1.3c-0.7-0.7-1.7-1.1-2.7-1.3
	c-0.1-0.3-0.1-0.7,0-1c2.8-0.2,5.5-0.9,8-2c-0.1,1.8-0.1,7.2-0.1,11.2c0,3.6,0,8.3,0.1,11.5c0,1.4,0.5,2,1.4,2.3
	c0.8,0.3,1.6,0.4,2.5,0.5C471.8,131.6,471.8,132.4,471.6,132.4z M466.6,99.1c-0.8,0.3-1.7,0.4-2.5,0.2c-1.3-0.9-1.8-2.6-1.1-4
	c0.7-0.6,1.7-1,2.7-1c0.6,0,1.3,0.2,1.8,0.6c0.4,0.4,0.5,1,0.5,1.5C468.1,97.5,467.5,98.5,466.6,99.1L466.6,99.1z"/>
<path class="st1" d="M483.1,109.3c-0.1,0-0.3,0.3-0.3,0.4c0,3.8-0.1,11,0,14c0,1.3,0.1,2.7,0.5,4c0.5,1.5,2,2.4,3.5,2.3
	c1.3,0.1,2.6-0.3,3.7-1.1c0,0.4,0,0.8-0.1,1.1c-1.5,1.9-3.8,3-6.1,2.9c-2.1,0-4.2-0.7-5.2-2.8c-0.8-1.6-0.9-3.3-0.9-7.6
	c0-3.5,0.1-10.1,0.1-12.8c0-0.2-0.1-0.4-0.3-0.5c-0.5-0.1-2.4-0.2-3.3-0.3c0.1-0.5,0.3-1.1,0.5-1.6c1-0.1,1.9-0.3,2.9-0.5
	c0.1-0.1,0.2-0.3,0.2-0.4v-5.3c1.6-0.8,3-2,4.2-3.3c0.3,0,0.5,0,0.8,0.1c-0.4,2.8-0.5,5.5-0.4,8.3c0,0.1,0.2,0.4,0.3,0.4
	c3.3,0,6.4-0.1,7.2-0.3c-0.2,0.9-0.4,1.8-0.5,2.8C487.7,109.3,485.1,109.3,483.1,109.3z"/>
<path class="st1" d="M492.8,106.6c1.1,0,2.3,0.2,6,0.2c2.7,0,5.1-0.2,5.8-0.2c0.2,0.3,0.2,0.7,0.1,1c-0.7,0.1-1.5,0.3-2.2,0.5
	c-0.4,0.2-0.6,0.6-0.5,1c0.7,2.5,6,16.2,6.5,17.2h0.1c2.2-4.9,5.1-12.6,5.7-16.1c0.1-0.7,0.2-1.6-1.3-2.1l-2.7-0.5
	c-0.1-0.3-0.1-0.7,0.1-1c0.8,0,3.3,0.2,5.4,0.2s3.5-0.1,5.2-0.2c0.2,0.3,0.2,0.7,0,1c-0.7,0.1-1.4,0.3-2.1,0.5c-1,0.3-1.7,1-2.4,2.7
	c-4.3,12.2-9.7,24.1-16,35.4l-2.4,3.7l-0.3,0.1c-1-0.3-1.9-0.8-2.5-1.6c-0.1-0.2-0.1-0.4-0.1-0.7c2.3-2.9,7.5-9.7,10.4-15.8
	c0,0-0.4-0.9-0.5-1.2c-1.3-3.6-4.4-11.6-6.5-16.9c-1.7-4.1-2.2-5.3-3.7-5.8c-0.7-0.2-1.5-0.4-2.2-0.5
	C492.6,107.3,492.6,106.9,492.8,106.6z"/>
<path class="st1" d="M560.7,118.8c0.2,4.7-2.1,9.2-6.1,11.8c-2.2,1.4-4.7,2.2-7.3,2.3c-9.4,0-12.8-7.2-12.8-13.8
	c-0.2-4.3,2-8.5,5.7-10.8c2.5-1.6,5.3-2.5,8.3-2.5C556.4,105.9,560.7,111.6,560.7,118.8z M543.1,108.7c-1.7,1.1-3.3,3.8-3.3,9
	c0,7.8,3.7,13.5,9.2,13.5c1.5,0,2.9-0.5,4.1-1.5c2-2.1,2.5-4.9,2.5-8.8c0-7.4-3.3-13.2-9.2-13.2C545.3,107.7,544.1,108,543.1,108.7
	L543.1,108.7z"/>
<path class="st1" d="M566.1,108.4c0.6-0.7,1.3-1.3,2.1-1.7h2.8c0.2-0.1,0.3-0.2,0.3-0.4c1.7-9,4.5-14.1,9.6-17.8
	c1.5-1.1,3.2-1.8,5.1-2c1,0,1.9,0.3,1.9,0.9s-2.1,3.3-2.6,3.6c-0.2,0.2-0.4,0.2-0.6,0.1c-0.8-0.6-1.8-1-2.8-1
	c-1.1,0-2.3,0.9-3.1,2.5c-1.3,2.7-2.1,6.1-3.3,13.7c0,0.2,0.1,0.4,0.3,0.4c2.1,0,4.1-0.2,6.2-0.5c0,0.3,0,0.6-0.2,0.9
	c-1.1,0.9-2.5,1.5-4,1.7c-0.6,0.1-1.8,0.2-2.3,0.2c-0.2,0.1-0.3,0.3-0.3,0.5c-1.1,7.3-2.3,16-3.7,23.4c-2.3,12.7-9.1,17.7-14,17.7
	c-2.2,0-3.5-1.2-3.7-2.4c0.1-1.3,0.4-2.6,0.9-3.9c0.1-0.2,0.4-0.3,0.6-0.3c1.1,2.2,3.2,3.6,5.6,3.7c3,0,4.3-3.1,5.5-10.4
	c1.6-9.4,3.7-22.8,4.3-27.7c0-0.2-0.1-0.5-0.2-0.5c-1.5,0-3.7-0.1-4.5-0.1C566,108.7,566,108.5,566.1,108.4z"/>
<path class="st1" d="M601.2,91.4c1.5,0,4.9,0.2,7.8,0.2c3.9,0,6.1-0.1,7.5-0.2c0.1,0.3,0.1,0.7,0,1c-1.6,0.3-2.3,0.5-3.1,0.7
	c-0.7,0.1-1.1,0.8-0.9,1.4c0,0.1,0.1,0.3,0.1,0.4c2.1,5.8,10.5,27.6,11.5,29.9c0.1-0.1,0.1,0.1,0.3,0c1-2.2,9.1-22.5,11-27.9
	c0.7-2.3,0.6-3.4-1.3-3.9c-1-0.2-1.9-0.4-3.3-0.6c0-0.3,0-0.7,0.2-1c1.4,0,3.8,0.2,6.8,0.2s5.2-0.2,6.4-0.2c0.1,0.3,0.1,0.7,0,1
	c-0.9,0.1-1.8,0.3-2.7,0.5c-1.9,0.5-2.6,1.7-4.4,6c-1.9,4.6-7.3,17.7-10.5,25.8c-1,2.6-2,5.2-2.7,7.9c-1-0.1-2-0.1-2.9,0
	c-0.8-2.6-1.7-5.6-3-9c-3.3-9-8-21.2-10.1-26.3c-1.3-3.2-2.1-4.2-3.8-4.5l-2.9-0.5C600.9,92.2,601,91.5,601.2,91.4z"/>
<path class="st1" d="M661.3,126.7c0,0.4,0,0.8-0.1,1.1c-3.2,3.5-7.2,5.2-10.4,5.2c-2.9,0.1-5.8-1-7.8-3.2c-2.5-2.7-3.5-6.6-3.5-10.2
	c0-5.4,2.2-9.4,5.8-11.6c2.1-1.2,4.4-2,6.8-2.1c6.2,0,8.3,5.8,8.8,9c0.1,0.2,0.2,0.5,0.8,0.5c0.1,0.2-0.1,0.8-0.3,0.9
	c-2.6,0.9-11.9,1.4-17,1.5c-0.3,0-0.4,0.4-0.4,0.7c0.1,2.6,0.9,5.2,2.5,7.3c1.8,2.2,4.5,3.5,7.3,3.4c2.7,0.1,5.4-0.9,7.3-2.8
	C661.1,126.5,661.3,126.6,661.3,126.7z M644.1,115.8c0,0.2,0.1,0.4,0.2,0.4c3.8,0.1,7.5-0.1,11.3-0.5c0.2-0.1,0.4-0.3,0.4-0.5
	c-0.4-3.4-2.3-7.6-6.2-7.6C646.8,107.6,644.4,110.5,644.1,115.8z"/>
<path class="st1" d="M683.7,107.3c0.1,0.3,0.1,0.7,0,1c-0.5,1.3-1.1,2.5-2,3.6c-0.2,0.1-0.3,0.1-0.5,0.2c-1-1.1-2.4-1.7-3.9-1.8
	c-1.4,0-2.5,1.2-3.4,2.7c-0.4,0.8-0.6,1.7-0.6,2.7c0,3.8,0.1,11.6,0.2,12.9s0.4,1.9,1.3,2.3c1.1,0.3,2.3,0.5,3.5,0.5
	c0.1,0.4,0.1,0.7-0.1,1.1c-0.9,0-4.2-0.2-6.8-0.2c-1.8,0-5.3,0.1-6.4,0.2c-0.1-0.3-0.1-0.7,0-1.1c0.8-0.1,1.7-0.2,2.5-0.5
	c0.6-0.3,1-0.7,1.1-1.9s0.3-6.8,0.3-11.8c0-2.6,0-4.7-0.1-5.6c-0.1-0.7-0.3-1.8-3.3-2.5c0-0.2,0.1-0.8,0.2-0.9
	c2.6-0.4,5.2-1.2,7.5-2.4c0.1,0,0.3,0.1,0.3,0.2c-0.1,1.2-0.1,4.3-0.1,5.5c0,0.1,0.2,0.1,0.3,0.1c1.1-1.6,2.5-3,3.9-4.3
	c0.9-0.8,2.1-1.3,3.4-1.4C681.9,105.8,683,106.3,683.7,107.3z"/>
<path class="st1" d="M688.5,130.8c1.1-0.3,1.2-1.6,1.3-3c0.1-3.4,0.2-10.8,0.2-15c0-0.8-0.2-1.5-0.6-2.2c-0.8-0.7-1.8-1.1-2.9-1.3
	c0-0.4,0.1-0.7,0.3-1c2.7-0.3,5.4-1.2,7.8-2.6c0.1,0,0.2,0.1,0.2,0.2c0,0.5-0.1,3.2-0.1,4.1c0,0.1,0.2,0.3,0.3,0.2
	c3.7-3,6.8-4.5,9-4.5c2.9,0,5.5,1.8,6.7,4.5c0.1,0.2,0.3,0.1,0.4,0.1c3.5-2.7,6.8-4.5,9.5-4.5c5,0,7.5,3.8,7.5,10
	c0.1,3.5,0.1,10.4,0.1,13c-0.1,0.5,0.1,1.1,0.5,1.5c0.7,0.6,1.6,0.7,3.4,0.9c0.1,0.2,0,0.9-0.2,1.1c-1.3,0-3.6-0.2-6.3-0.2
	c-3.1,0-4.8,0.1-6,0.2c-0.1-0.3-0.1-0.7,0-1.1c1-0.1,1.9-0.3,2.9-0.7c0.9-0.3,0.9-1.7,0.9-4.4c0.1-4.5,0.2-9.9-0.3-12
	c-0.3-3.1-2.9-5.3-6-5.1c-2.1,0.1-4.1,0.9-5.7,2.4c-0.1,0.2-0.2,0.4-0.1,0.6c0.2,1.5,0.3,3.1,0.3,4.6c0,3.5-0.1,9.7,0.1,12.4
	c0,0.7,0.3,1.3,0.9,1.5c0.9,0.4,1.9,0.6,2.9,0.7c0.1,0.4,0.1,0.7-0.1,1.1c-1.9,0-3.8-0.2-6.4-0.2c-2.4,0-4.8,0.2-6,0.2
	c-0.1-0.3-0.1-0.7,0-1.1c0.9-0.1,1.7-0.2,2.5-0.5c0.9-0.3,1-1,1.1-2.7c0.2-4.8,0.1-9.5-0.2-14.3c-0.4-2.8-2.9-4.9-5.8-4.7
	c-1.7,0.1-3.3,0.7-4.7,1.7c-0.7,0.4-1.2,1.2-1.3,2c0,4.3,0,12.3,0.1,15.8c0,1.1,0.1,1.9,1.3,2.3c0.8,0.2,1.7,0.4,2.5,0.5
	c0.1,0.1,0.1,1-0.1,1.1c-1.5,0-3.8-0.2-6.2-0.2c-3.5,0-4.5,0.2-6.2,0.2c-0.2-0.1-0.1-1,0-1.1C687,131.2,687.8,131.1,688.5,130.8z"/>
<path class="st1" d="M762.3,118.8c0.2,4.7-2.1,9.2-6.1,11.8c-2.2,1.4-4.7,2.2-7.3,2.3c-9.4,0-12.8-7.2-12.8-13.8
	c-0.2-4.3,2-8.5,5.7-10.8c2.5-1.6,5.3-2.5,8.3-2.5C757.9,105.9,762.3,111.6,762.3,118.8z M744.6,108.7c-1.7,1.1-3.3,3.8-3.3,9
	c0,7.8,3.7,13.5,9.2,13.5c1.5,0,2.9-0.5,4.1-1.5c2-2.1,2.5-4.9,2.5-8.8c0-7.4-3.3-13.2-9.2-13.2C746.8,107.7,745.6,108,744.6,108.7z
	"/>
<path class="st1" d="M769.2,130.9c0.9-0.3,1.2-1.4,1.3-2.7c0.2-2.3,0.1-6.9,0.1-10.8c0-3.3-0.1-5.7-0.1-6.2c-0.1-0.8-0.5-1.3-3.1-2
	c-0.1-0.1,0-0.9,0.2-0.9c2.7-0.4,5.4-1.2,7.8-2.5c0.1,0,0.2,0.1,0.2,0.3c-0.1,1.3-0.2,2.8-0.3,3.9c0,0.2,0.1,0.3,0.3,0.3
	c4.1-3.3,7.2-4.4,9.2-4.4c2.5,0,4.7,1.3,6,3.4c1.2,1.9,1.6,4.4,1.6,7.6c0,3.5,0,9.6,0.1,12.2c0,0.8,0.2,1.3,0.9,1.5
	c0.9,0.4,1.9,0.7,2.9,0.7c0.1,0.2,0,0.9-0.2,1.1c-0.9,0-2.5-0.2-5.8-0.2s-5.2,0.1-6.5,0.2c-0.1-0.3-0.1-0.7,0-1.1
	c0.9-0.1,1.7-0.2,2.5-0.4c0.9-0.3,1.5-1.1,1.4-2.1c0.2-4.7,0.1-9.3-0.1-14c-0.2-1.6-0.9-3.1-1.9-4.3c-1.1-1-2.6-1.6-4.1-1.5
	c-2,0-4,0.8-5.4,2.2c-0.5,0.5-0.7,1-0.7,2.4c0,5,0,11.4,0.1,14.4c0.1,1.9,0.4,2.4,1.2,2.7c0.9,0.3,1.9,0.5,2.8,0.6
	c0,0.4,0,0.7-0.1,1.1c-1.1,0-3-0.2-6.4-0.2c-3.9,0-5,0.2-6.1,0.2c-0.1-0.3-0.1-0.7,0-1.1C767.6,131.3,768.4,131.2,769.2,130.9z"/>
<path class="st1" d="M807.1,109.3c-0.1,0-0.3,0.3-0.3,0.4c0,3.8-0.1,11,0,14c0,1.3,0.1,2.7,0.5,4c0.5,1.5,2,2.4,3.5,2.3
	c1.3,0.1,2.6-0.3,3.7-1.1c0,0.4,0,0.8-0.1,1.1c-1.5,1.9-3.8,3-6.2,2.9c-2.1,0-4.2-0.7-5.2-2.8c-0.8-1.6-0.9-3.3-0.9-7.6
	c0-3.5,0.1-10.1,0.1-12.8c0-0.2-0.1-0.4-0.3-0.5c-0.5-0.1-2.4-0.2-3.3-0.3c0.1-0.5,0.3-1.1,0.5-1.6c1-0.1,1.9-0.3,2.9-0.5
	c0.1-0.1,0.2-0.3,0.2-0.4v-5.3c1.6-0.8,3-2,4.2-3.3c0.3,0,0.5,0,0.8,0.1c-0.3,2.8-0.5,5.5-0.4,8.3c0,0.1,0.2,0.4,0.3,0.4
	c3.3,0,6.4-0.1,7.2-0.3c-0.2,0.9-0.4,1.8-0.5,2.8C811.7,109.3,809.2,109.3,807.1,109.3z"/>
<polygon class="st1" points="91.1,72.8 87.5,72.8 81.2,37.2 84.9,72.8 80.5,72.8 80.5,32 "/>
<polygon class="st1" points="95.5,80.7 95.5,78.8 92.8,75.9 68.3,75.9 65.6,78.8 65.6,80.7 "/>
<path class="st1" d="M79.4,101.8h-5.1V89.2c0.2-1.4,1.4-2.4,2.8-2.2c1.2,0.1,2.1,1.1,2.2,2.2V101.8z"/>
<path class="st1" d="M72,101.8h-5V89.2c0.2-1.4,1.4-2.4,2.8-2.2c1.2,0.1,2.1,1.1,2.2,2.2L72,101.8z"/>
<path class="st1" d="M94.1,101.8H89V89.2c0.2-1.4,1.4-2.4,2.8-2.2c1.2,0.1,2.1,1.1,2.2,2.2L94.1,101.8z"/>
<path class="st1" d="M86.7,101.8h-5V89.2c0.2-1.4,1.4-2.4,2.8-2.2c1.2,0.1,2.1,1.1,2.2,2.2L86.7,101.8z"/>
<polygon class="st1" points="97.1,107 95.2,103.6 65.8,103.6 64,107 "/>
<path class="st1" d="M74.3,141.9h-5.5v-7.8c0,0,0-2.3,2.8-2.3s2.8,2.3,2.8,2.3L74.3,141.9z"/>
<path class="st1" d="M92.5,141.9H87v-7.8c0,0,0-2.3,2.8-2.3s2.8,2.3,2.8,2.3L92.5,141.9z"/>
<path class="st1" d="M84,141.9h-6.9v-13.8c0,0,0-2.8,3.4-2.8s3.5,2.8,3.5,2.8V141.9z"/>
<polygon class="st1" points="56.4,141.9 60.6,141.9 80.5,114.7 100.5,141.9 104.7,141.9 80.5,109.6 "/>
<polygon class="st1" points="43.8,147.5 117.3,147.5 119.1,144.8 42,144.8 "/>
<path class="st1" d="M79.2,160H70v-7.3c2.9-1.4,6-2.1,9.2-2.2L79.2,160z"/>
<path class="st1" d="M81.9,160h9.2v-7.3c-2.9-1.4-6-2.1-9.2-2.2V160z"/>
<rect x="70" y="162.7" class="st1" width="9.2" height="7"/>
<rect x="81.9" y="162.7" class="st1" width="9.2" height="7"/>
<path class="st1" d="M67.2,160h-6.9c2-2.3,4.3-4.2,6.8-5.8"/>
<path class="st1" d="M67.2,169.7v-7h-9.1c-1.6,2.2-3,4.5-4,7H67.2"/>
<path class="st1" d="M93.9,160h6.8c-2-2.3-4.3-4.2-6.8-5.8"/>
<path class="st1" d="M93.9,169.7v-7h9.1c1.6,2.2,3,4.5,4,7H93.9"/>
<rect x="17" y="16.1" class="st2" width="128.6" height="153.6"/>
<g>
	<path class="st1" d="M29.5,16.1H17v153.6h12.5H32h11.8v-8L41,160v-6.2l-1.8-1.5v-6.6l-2.8-1.7V142h16.8l7.4-10l3.4-21.3l-2.8-3.7
		l2.8-5.2V85.2l-3.6-1.8v-3l5.9-6.7l0.7-0.9l11-39.9l-1.6-1.2l3.3-5.8c-0.9-0.3-1.4-1.1-1.4-2.1c-0.1-1.2,0.8-2.2,2-2.2
		c0.1,0,0.1,0,0.2,0v-5.5H32H29.5z"/>
	<path class="st1" d="M131.6,16.1h-1.1H80.6v5.5c0.1,0,0.1,0,0.2,0c1.2,0.1,2.1,1.1,2,2.2c0,0.9-0.6,1.8-1.4,2.1l3.4,5.8l-1.6,1.2
		l11,39.9l0.7,0.8l5.9,6.7v3l-3.6,1.8v16.6l2.8,5.2l-2.8,3.6l3.5,21.4l7.4,10h16.7v1.9l-2.8,1.7v6.6l-1.8,1.5v6.2l-2.7,1.7v8h13.2
		h1.1h14V16.1H131.6z"/>
</g>
<rect class="st3" width="849" height="187"/>
</svg>
